<svg width="24" height="24" viewBox="0 0 24 24" fill="none" xmlns="http://www.w3.org/2000/svg">
<path d="M19.4136 18H13.6006M16.5071 15V21M7.47953 14C8.40023 14.6318 9.50544 15 10.6939 15C11.3734 15 12.0256 14.8797 12.6317 14.6586M10.2096 21H5.46226C4.91966 21 4.64835 21 4.44111 20.891C4.25881 20.7951 4.1106 20.6422 4.0177 20.454C3.91211 20.2401 3.91211 19.9601 3.91211 19.4V17C3.91211 15.3431 5.21342 14 6.81865 14H7.30307M14.5694 7C14.5694 9.20914 12.8343 11 10.694 11C8.55372 11 6.81865 9.20914 6.81865 7C6.81865 4.79086 8.55372 3 10.694 3C12.8343 3 14.5694 4.79086 14.5694 7Z" stroke="#374151" stroke-width="2" stroke-linecap="round" stroke-linejoin="round"/>
</svg>
