<svg width="19" height="15" viewBox="0 0 19 15" fill="none" xmlns="http://www.w3.org/2000/svg">
<path d="M2.00015 6L1.29304 6.7071L0.585938 6L1.29304 5.29289L2.00015 6ZM19.0001 14C19.0001 14.5523 18.5524 15 18.0001 15C17.4478 15 17.0001 14.5523 17.0001 14H19.0001ZM6.29304 11.7071L1.29304 6.7071L2.70726 5.29289L7.70726 10.2929L6.29304 11.7071ZM1.29304 5.29289L6.29304 0.292889L7.70726 1.70711L2.70726 6.7071L1.29304 5.29289ZM2.00015 5H12.0001V7H2.00015V5ZM19.0001 12V14H17.0001V12H19.0001ZM12.0001 5C15.8661 5 19.0001 8.134 19.0001 12H17.0001C17.0001 9.2386 14.7615 7 12.0001 7V5Z" fill="white"/>
</svg>
