<svg width="15" height="15" viewBox="0 0 15 15" fill="none" xmlns="http://www.w3.org/2000/svg">
<path d="M2.30859 6.77548C2.30859 6.97554 2.47078 7.13773 2.67085 7.13773C2.87091 7.13773 3.0331 6.97554 3.0331 6.77548H2.30859ZM3.18936 9.25156C3.1128 9.06671 2.90089 8.97895 2.71605 9.05551C2.53122 9.13206 2.44344 9.34396 2.52 9.5288L3.18936 9.25156ZM8.33751 12.2188L8.59935 11.7765L7.97584 11.4074L7.714 11.8498L8.33751 12.2188ZM6.40245 11.7765L6.66429 12.2188L7.28775 11.8498L7.02591 11.4074L6.40245 11.7765ZM7.714 11.8498C7.62093 12.0071 7.38087 12.0071 7.28775 11.8498L6.66429 12.2188C7.03794 12.8501 7.96386 12.8501 8.33751 12.2188L7.714 11.8498ZM6.77639 3.03219H8.22541V2.30768H6.77639V3.03219ZM11.9687 6.77548V7.25848H12.6932V6.77548H11.9687ZM5.47349 10.5147C4.8671 10.5042 4.54937 10.4657 4.30031 10.3625L4.02306 11.0319C4.41186 11.1929 4.8547 11.2286 5.46101 11.2391L5.47349 10.5147ZM2.52 9.5288C2.80188 10.2093 3.34254 10.75 4.02306 11.0319L4.30031 10.3625C3.79732 10.1541 3.3977 9.75456 3.18936 9.25156L2.52 9.5288ZM11.9687 7.25848C11.9687 7.82606 11.9685 8.23362 11.9466 8.55521C11.9248 8.87356 11.883 9.08115 11.8124 9.25156L12.4818 9.5288C12.5951 9.25542 12.6452 8.95977 12.6694 8.60452C12.6934 8.25256 12.6932 7.81616 12.6932 7.25848H11.9687ZM9.54078 11.2391C10.1471 11.2286 10.59 11.1929 10.9787 11.0319L10.7015 10.3625C10.4524 10.4657 10.1347 10.5042 9.52832 10.5147L9.54078 11.2391ZM11.8124 9.25156C11.6041 9.75456 11.2045 10.1541 10.7015 10.3625L10.9787 11.0319C11.6592 10.75 12.1999 10.2093 12.4818 9.5288L11.8124 9.25156ZM8.22541 3.03219C9.02295 3.03219 9.5957 3.03257 10.0424 3.07504C10.4838 3.11701 10.7646 3.19749 10.9885 3.33468L11.3671 2.71694C11.0102 2.49826 10.6054 2.4008 10.111 2.35379C9.62202 2.3073 9.00894 2.30768 8.22541 2.30768V3.03219ZM12.6932 6.77548C12.6932 5.99195 12.6936 5.37887 12.6471 4.88988C12.6001 4.3955 12.5026 3.99069 12.284 3.63383L11.6662 4.01239C11.8034 4.23628 11.8839 4.51711 11.9259 4.95846C11.9683 5.40519 11.9687 5.97792 11.9687 6.77548H12.6932ZM10.9885 3.33468C11.2647 3.50395 11.4969 3.73618 11.6662 4.01239L12.284 3.63383C12.055 3.26014 11.7408 2.94594 11.3671 2.71694L10.9885 3.33468ZM6.77639 2.30768C5.99287 2.30768 5.37978 2.3073 4.89079 2.35379C4.39641 2.4008 3.9916 2.49826 3.63475 2.71694L4.0133 3.33468C4.23719 3.19749 4.51802 3.11701 4.95937 3.07504C5.40611 3.03257 5.97884 3.03219 6.77639 3.03219V2.30768ZM3.0331 6.77548C3.0331 5.97792 3.03348 5.40519 3.07596 4.95846C3.11792 4.51711 3.1984 4.23628 3.3356 4.01239L2.71785 3.63383C2.49917 3.99069 2.40171 4.3955 2.35471 4.88988C2.30821 5.37887 2.30859 5.99195 2.30859 6.77548H3.0331ZM3.63475 2.71694C3.26105 2.94594 2.94686 3.26014 2.71785 3.63383L3.3356 4.01239C3.50486 3.73618 3.73709 3.50395 4.0133 3.33468L3.63475 2.71694ZM7.02591 11.4074C6.92786 11.2417 6.84179 11.0955 6.75809 10.9807C6.66989 10.8597 6.5688 10.7508 6.42856 10.6692L6.06431 11.2955C6.08721 11.3088 6.1184 11.3331 6.17256 11.4074C6.23119 11.4879 6.29742 11.599 6.40245 11.7765L7.02591 11.4074ZM5.46101 11.2391C5.67309 11.2427 5.80742 11.2455 5.90982 11.2568C6.00551 11.2674 6.0426 11.2829 6.06431 11.2955L6.42856 10.6692C6.28716 10.587 6.14001 10.5533 5.98956 10.5366C5.84583 10.5208 5.67212 10.5181 5.47349 10.5147L5.46101 11.2391ZM8.59935 11.7765C8.70436 11.599 8.77058 11.4879 8.82921 11.4074C8.88336 11.3331 8.91456 11.3088 8.93746 11.2955L8.57322 10.6692C8.43301 10.7508 8.33186 10.8597 8.24372 10.9807C8.16001 11.0955 8.07394 11.2417 7.97584 11.4074L8.59935 11.7765ZM9.52832 10.5147C9.32966 10.5181 9.15597 10.5208 9.01222 10.5366C8.86177 10.5533 8.71465 10.587 8.57322 10.6692L8.93746 11.2955C8.95919 11.2829 8.99629 11.2674 9.09197 11.2568C9.19437 11.2455 9.32869 11.2427 9.54078 11.2391L9.52832 10.5147Z" fill="white"/>
<path d="M5.56836 7.017H5.57271M7.49603 7.017H7.50038M9.42806 7.017H9.4324" stroke="white" stroke-linecap="round" stroke-linejoin="round"/>
</svg>
