<svg width="13" height="13" viewBox="0 0 13 13" fill="none" xmlns="http://www.w3.org/2000/svg">
<g clip-path="url(#clip0_428_1365)">
<path d="M4.875 6.54335L5.95833 7.58335L8.125 5.41669" stroke="white" stroke-linecap="round" stroke-linejoin="round"/>
<path d="M9.20898 1.808C8.41225 1.34712 7.48724 1.08334 6.50065 1.08334C3.50911 1.08334 1.08398 3.50847 1.08398 6.50001C1.08398 7.36651 1.28745 8.18546 1.64919 8.91178C1.74533 9.10478 1.77732 9.3254 1.72159 9.53367L1.39897 10.7395C1.25892 11.2629 1.73778 11.7417 2.26122 11.6017L3.46699 11.2791C3.67528 11.2233 3.89589 11.2554 4.0889 11.3514C4.81518 11.7132 5.63415 11.9167 6.50065 11.9167C9.49217 11.9167 11.9173 9.49153 11.9173 6.50001C11.9173 5.51342 11.6535 4.5884 11.1927 3.79168" stroke="white" stroke-linecap="round"/>
</g>
<defs>
<clipPath id="clip0_428_1365">
<rect width="13" height="13" fill="white"/>
</clipPath>
</defs>
</svg>
