<svg width="18" height="18" viewBox="0 0 18 18" fill="none" xmlns="http://www.w3.org/2000/svg">
<path d="M3.84101 0.659005C2.96232 -0.219668 1.5377 -0.219668 0.659005 0.659005C-0.219668 1.5377 -0.219668 2.96232 0.659005 3.84101L5.81807 9.00003L0.659005 14.1591C-0.219668 15.0377 -0.219668 16.4624 0.659005 17.341C1.5377 18.2197 2.96232 18.2197 3.84101 17.341L9.00003 12.182L14.1591 17.341C15.0377 18.2197 16.4624 18.2197 17.341 17.341C18.2197 16.4624 18.2197 15.0377 17.341 14.1591L12.182 9.00003L17.341 3.84101C18.2197 2.96232 18.2197 1.5377 17.341 0.659005C16.4624 -0.219668 15.0377 -0.219668 14.1591 0.659005L9.00003 5.81807L3.84101 0.659005Z" fill="white"/>
</svg>
