<svg width="18" height="14" viewBox="0 0 18 14" fill="none" xmlns="http://www.w3.org/2000/svg">
<path fill-rule="evenodd" clip-rule="evenodd" d="M4.5 0.875H13.5C14.6935 0.875 15.8381 1.34911 16.682 2.19302C17.5259 3.03693 18 4.18153 18 5.375V8.75C18 9.94347 17.5259 11.0881 16.682 11.932C15.8381 12.7759 14.6935 13.25 13.5 13.25H4.5C3.30653 13.25 2.16193 12.7759 1.31802 11.932C0.474106 11.0881 0 9.94347 0 8.75V5.375C0 4.18153 0.474106 3.03693 1.31802 2.19302C2.16193 1.34911 3.30653 0.875 4.5 0.875ZM4.5 2C3.60489 2 2.74645 2.35558 2.11351 2.98851C1.48058 3.62145 1.125 4.47989 1.125 5.375V8.75C1.125 9.64511 1.48058 10.5036 2.11351 11.1365C2.74645 11.7694 3.60489 12.125 4.5 12.125H13.5C14.3951 12.125 15.2536 11.7694 15.8865 11.1365C16.5194 10.5036 16.875 9.64511 16.875 8.75V5.375C16.875 4.47989 16.5194 3.62145 15.8865 2.98851C15.2536 2.35558 14.3951 2 13.5 2H4.5Z" fill="white"/>
<path d="M6.1875 4.25C6.03832 4.25 5.89524 4.30926 5.78975 4.41475C5.68426 4.52024 5.625 4.66332 5.625 4.8125V6.5H3.9375C3.78832 6.5 3.64524 6.55926 3.53975 6.66475C3.43426 6.77024 3.375 6.91332 3.375 7.0625C3.375 7.21168 3.43426 7.35476 3.53975 7.46025C3.64524 7.56574 3.78832 7.625 3.9375 7.625H5.625V9.3125C5.625 9.46168 5.68426 9.60476 5.78975 9.71025C5.89524 9.81574 6.03832 9.875 6.1875 9.875C6.33668 9.875 6.47976 9.81574 6.58525 9.71025C6.69074 9.60476 6.75 9.46168 6.75 9.3125V7.625H8.4375C8.58668 7.625 8.72976 7.56574 8.83525 7.46025C8.94074 7.35476 9 7.21168 9 7.0625C9 6.91332 8.94074 6.77024 8.83525 6.66475C8.72976 6.55926 8.58668 6.5 8.4375 6.5H6.75V4.8125C6.75 4.66332 6.69074 4.52024 6.58525 4.41475C6.47976 4.30926 6.33668 4.25 6.1875 4.25ZM14.625 5.375C14.625 5.67337 14.5065 5.95952 14.2955 6.17049C14.0845 6.38147 13.7984 6.5 13.5 6.5C13.2016 6.5 12.9155 6.38147 12.7045 6.17049C12.4935 5.95952 12.375 5.67337 12.375 5.375C12.375 5.07663 12.4935 4.79048 12.7045 4.57951C12.9155 4.36853 13.2016 4.25 13.5 4.25C13.7984 4.25 14.0845 4.36853 14.2955 4.57951C14.5065 4.79048 14.625 5.07663 14.625 5.375ZM13.5 8.75C13.5 9.04837 13.3815 9.33452 13.1705 9.54549C12.9595 9.75647 12.6734 9.875 12.375 9.875C12.0766 9.875 11.7905 9.75647 11.5795 9.54549C11.3685 9.33452 11.25 9.04837 11.25 8.75C11.25 8.45163 11.3685 8.16548 11.5795 7.95451C11.7905 7.74353 12.0766 7.625 12.375 7.625C12.6734 7.625 12.9595 7.74353 13.1705 7.95451C13.3815 8.16548 13.5 8.45163 13.5 8.75Z" fill="white"/>
</svg>
