<svg width="24" height="24" viewBox="0 0 24 24" fill="none" xmlns="http://www.w3.org/2000/svg">
<path d="M3.14844 6.16667C3.14844 5.70644 3.48306 5.33335 3.89583 5.33335L6.47707 5.3329C6.98993 5.31841 7.44238 4.95482 7.61689 4.41691C7.62148 4.40277 7.62675 4.38532 7.64568 4.32203L7.7569 3.94993C7.82496 3.72179 7.88425 3.52303 7.96724 3.34536C8.29503 2.64349 8.90152 2.1561 9.60238 2.03132C9.77977 1.99973 9.96764 1.99987 10.1833 2.00002H13.553C13.7686 1.99987 13.9565 1.99973 14.1339 2.03132C14.8348 2.1561 15.4413 2.64349 15.769 3.34536C15.852 3.52303 15.9113 3.72179 15.9793 3.94993L16.0906 4.32203C16.1096 4.38532 16.1148 4.40277 16.1193 4.41691C16.2939 4.95482 16.8361 5.31886 17.3489 5.33335H19.8403C20.253 5.33335 20.5877 5.70644 20.5877 6.16667C20.5877 6.62691 20.253 7 19.8403 7H3.89583C3.48306 7 3.14844 6.62691 3.14844 6.16667Z" fill="#374151"/>
<path d="M11.7291 21.9998H12.4915C15.1147 21.9998 16.4262 21.9998 17.279 21.1366C18.1318 20.2734 18.2191 18.8575 18.3935 16.0256L18.645 11.945C18.7396 10.4085 18.787 9.6402 18.3591 9.15335C17.9313 8.6665 17.2089 8.6665 15.764 8.6665H8.45662C7.01174 8.6665 6.28931 8.6665 5.86149 9.15335C5.43369 9.6402 5.48103 10.4085 5.5757 11.945L5.82713 16.0256C6.00162 18.8575 6.08886 20.2734 6.94163 21.1366C7.7944 21.9998 9.10596 21.9998 11.7291 21.9998Z" fill="#374151"/>
</svg>
