<svg width="25" height="24" viewBox="0 0 25 24" fill="none" xmlns="http://www.w3.org/2000/svg">
<path d="M11.9225 14.929L17.6549 9.01226C16.8747 8.67711 15.9506 8.12657 15.0767 7.22456C14.2027 6.32239 13.6693 5.36847 13.3446 4.56313L7.6121 10.4799C7.1648 10.9416 6.94108 11.1725 6.74873 11.4271C6.52181 11.7273 6.32727 12.0522 6.16853 12.396C6.03398 12.6874 5.93395 12.9972 5.73389 13.6167L4.67892 16.8833C4.58047 17.1882 4.65734 17.5243 4.87748 17.7515C5.09763 17.9787 5.42325 18.0581 5.7186 17.9564L8.8835 16.8676C9.48367 16.6611 9.78377 16.5578 10.0661 16.4189C10.3992 16.2551 10.714 16.0543 11.0048 15.8201C11.2515 15.6215 11.4752 15.3907 11.9225 14.929Z" fill="#374151"/>
<path d="M19.2441 7.37044C20.4343 6.14188 20.4343 4.14999 19.2441 2.92142C18.0538 1.69286 16.1239 1.69286 14.9337 2.92142L14.2461 3.63105C14.2555 3.6604 14.2653 3.69015 14.2754 3.72028C14.5274 4.47 15.0029 5.45281 15.8974 6.37602C16.7918 7.29923 17.744 7.78999 18.4704 8.05009C18.4994 8.0605 18.5281 8.07054 18.5564 8.08021L19.2441 7.37044Z" fill="#374151"/>
</svg>
