<svg width="21" height="21" viewBox="0 0 21 21" fill="none" xmlns="http://www.w3.org/2000/svg">
<path d="M15.9744 6.26123L20.0003 10.2872L15.9744 14.3131" stroke="white"/>
<path d="M20.0003 10.2871H5.23718" stroke="white"/>
<path d="M13.5288 12.8545V18.4689C13.5288 18.6186 13.4992 18.7668 13.4418 18.9051C13.3844 19.0434 13.3002 19.169 13.1941 19.2746C13.0881 19.3803 12.9622 19.464 12.8237 19.5209C12.6853 19.5779 12.5369 19.6069 12.3872 19.6064H2.15375C2.00301 19.6085 1.85334 19.5807 1.71346 19.5245C1.57357 19.4683 1.44624 19.3848 1.33889 19.279C1.23154 19.1732 1.14629 19.047 1.08811 18.908C1.02994 18.7689 0.999985 18.6196 1 18.4689V2.12543C1.00159 1.9757 1.03272 1.82776 1.09162 1.69009C1.15051 1.55243 1.23601 1.42774 1.3432 1.32319C1.45039 1.21864 1.57717 1.13629 1.71626 1.08084C1.85536 1.0254 2.00403 0.997969 2.15375 1.00012H12.3872C12.6875 0.999027 12.976 1.11672 13.1899 1.32753C13.4037 1.53834 13.5255 1.82516 13.5288 2.12543V7.50012" stroke="white"/>
</svg>
