<svg width="18" height="18" viewBox="0 0 18 18" fill="none" xmlns="http://www.w3.org/2000/svg">
<path fill-rule="evenodd" clip-rule="evenodd" d="M12.4618 4.82251C12.7514 4.5357 13.2113 4.54547 13.4892 4.84433L16.8703 8.4807C17.1401 8.7709 17.1401 9.2291 16.8703 9.5193L13.4892 13.1557C13.2113 13.4545 12.7514 13.4643 12.4618 13.1775C12.1723 12.8907 12.1628 12.4159 12.4407 12.1171L14.6413 9.7502H7.8907C7.4894 9.7502 7.16406 9.4144 7.16406 9.0002C7.16406 8.586 7.4894 8.2502 7.8907 8.2502H14.6417L12.4407 5.88295C12.1628 5.58409 12.1723 5.10932 12.4618 4.82251Z" fill="#374151"/>
<path fill-rule="evenodd" clip-rule="evenodd" d="M0.117188 1C0.117188 0.58579 0.442517 0.25 0.843823 0.25H10.0038C10.4052 0.25 10.7304 0.58579 10.7304 1V4C10.7304 4.41421 10.4052 4.75 10.0038 4.75C9.60249 4.75 9.27715 4.41421 9.27715 4V1.75H1.57046V16.25H9.27715V14C9.27715 13.5858 9.60249 13.25 10.0038 13.25C10.4052 13.25 10.7304 13.5858 10.7304 14V17C10.7304 17.4142 10.4052 17.75 10.0038 17.75H0.843823C0.442517 17.75 0.117188 17.4142 0.117188 17V1Z" fill="#374151"/>
</svg>
