<svg width="31" height="30" viewBox="0 0 31 30" fill="none" xmlns="http://www.w3.org/2000/svg">
<path d="M14.8804 11.25L11.1304 15M11.1304 15L14.8804 18.75M11.1304 15H20.5054M27.0679 15C27.0679 16.4774 26.7769 17.9403 26.2115 19.3052C25.6462 20.6701 24.8175 21.9103 23.7728 22.955C22.7282 23.9996 21.488 24.8283 20.1231 25.3936C18.7581 25.959 17.2952 26.25 15.8179 26.25C14.3405 26.25 12.8776 25.959 11.5127 25.3936C10.1478 24.8283 8.90758 23.9996 7.86292 22.955C6.81826 21.9103 5.98959 20.6701 5.42423 19.3052C4.85886 17.9403 4.56787 16.4774 4.56787 15C4.56787 12.0163 5.75314 9.15483 7.86292 7.04505C9.9727 4.93526 12.8342 3.75 15.8179 3.75C18.8016 3.75 21.663 4.93526 23.7728 7.04505C25.8826 9.15483 27.0679 12.0163 27.0679 15Z" stroke="white" stroke-width="1.5" stroke-linecap="round" stroke-linejoin="round"/>
</svg>
