<svg width="24" height="24" viewBox="0 0 24 24" fill="none" xmlns="http://www.w3.org/2000/svg">
<path d="M0.632861 4.5375C0.440674 4.34531 0.346924 4.10156 0.346924 3.80625C0.346924 3.51094 0.440674 3.26719 0.632861 3.075C0.825049 2.88281 1.0688 2.78906 1.36411 2.78906H22.7485C23.0438 2.78906 23.2875 2.88281 23.4797 3.075C23.6719 3.26719 23.7657 3.51094 23.7657 3.80625C23.7657 4.10156 23.6719 4.34531 23.4797 4.5375C23.2875 4.72969 23.0438 4.82344 22.7485 4.82344H1.36411C1.0688 4.82344 0.825049 4.72969 0.632861 4.5375ZM23.4797 11.2219C23.6719 11.4141 23.7657 11.6578 23.7657 11.9531C23.7657 12.2484 23.6719 12.4922 23.4797 12.6844C23.2875 12.8766 23.0438 12.9703 22.7485 12.9703H1.36411C1.0688 12.9703 0.825049 12.8766 0.632861 12.6844C0.440674 12.4922 0.346924 12.2484 0.346924 11.9531C0.346924 11.6578 0.440674 11.4141 0.632861 11.2219C0.825049 11.0297 1.0688 10.9359 1.36411 10.9359H22.7485C23.0438 10.9359 23.2875 11.0297 23.4797 11.2219ZM23.4797 19.3641C23.6719 19.5563 23.7657 19.8 23.7657 20.0953C23.7657 20.3906 23.6719 20.6344 23.4797 20.8266C23.2875 21.0187 23.0438 21.1125 22.7485 21.1125H1.36411C1.0688 21.1125 0.825049 21.0187 0.632861 20.8266C0.440674 20.6344 0.346924 20.3906 0.346924 20.0953C0.346924 19.8 0.440674 19.5563 0.632861 19.3641C0.825049 19.1719 1.0688 19.0781 1.36411 19.0781H22.7485C23.0438 19.0781 23.2875 19.1766 23.4797 19.3641Z" fill="white"/>
</svg>
