<svg width="22" height="16" viewBox="0 0 22 16" fill="none" xmlns="http://www.w3.org/2000/svg">
<path d="M16.1405 0.610678C14.123 0.666178 12.5592 1.21368 11.0367 1.74318C9.4085 2.30868 7.87175 2.84193 5.7425 2.86368C4.31975 2.88618 2.89475 2.64018 1.4945 2.15568L0.5 1.81218V14.6237L0.9995 14.8014C2.30375 15.2627 3.63725 15.5289 4.96475 15.5919C5.1755 15.6017 5.38175 15.6069 5.58425 15.6069C7.844 15.6069 9.57425 15.0069 11.252 14.4279C13.0205 13.8159 14.6885 13.2377 16.9647 13.3449C18.1713 13.4069 19.3622 13.6454 20.4995 14.0529L21.5 14.4069V1.59018L21.0065 1.41018C19.7303 0.945403 18.3906 0.678323 17.0338 0.618178C16.7362 0.604968 16.4382 0.602466 16.1405 0.610678ZM16.181 2.10018C16.436 2.09268 16.697 2.09268 16.9678 2.10318C17.2483 2.11518 17.5287 2.14068 17.8085 2.17368C17.9226 2.64427 18.2147 3.0523 18.6234 3.31202C19.032 3.57175 19.5255 3.66294 20 3.56643V10.3929C19.7543 10.3429 19.5011 10.3428 19.2553 10.3926C19.0096 10.4424 18.7764 10.541 18.5695 10.6827C18.3626 10.8243 18.1864 11.0061 18.0511 11.2173C17.9159 11.4284 17.8244 11.6645 17.7822 11.9117C17.5338 11.8861 17.2847 11.8676 17.0353 11.8562C14.474 11.7437 12.5855 12.3879 10.76 13.0209C8.98925 13.6344 7.3115 14.2142 5.03675 14.1062C4.75344 14.0914 4.47076 14.0663 4.18925 14.0312C4.07417 13.5619 3.78202 13.1553 3.37395 12.8966C2.96589 12.6378 2.47355 12.5469 2 12.6429V5.81643C2.24716 5.86673 2.50194 5.8665 2.74901 5.81576C2.99608 5.76502 3.23033 5.66481 3.43766 5.52117C3.64499 5.37753 3.82112 5.19343 3.95544 4.97994C4.08976 4.76646 4.1795 4.528 4.21925 4.27893C4.733 4.33218 5.24675 4.36293 5.759 4.35468C8.13275 4.33068 9.8585 3.72993 11.5287 3.14943C12.9995 2.63718 14.4013 2.15568 16.181 2.10018ZM11 4.35468C9.3455 4.35468 8 6.03693 8 8.10468C8 10.1724 9.3455 11.8547 11 11.8547C12.6545 11.8547 14 10.1724 14 8.10468C14 6.03693 12.6545 4.35468 11 4.35468ZM11 5.85468C11.813 5.85468 12.5 6.88518 12.5 8.10468C12.5 9.32418 11.813 10.3547 11 10.3547C10.187 10.3547 9.5 9.32418 9.5 8.10468C9.5 6.88518 10.187 5.85468 11 5.85468ZM16.625 5.85468C16.3266 5.85468 16.0405 5.9732 15.8295 6.18418C15.6185 6.39516 15.5 6.68131 15.5 6.97968C15.5 7.27805 15.6185 7.56419 15.8295 7.77517C16.0405 7.98615 16.3266 8.10468 16.625 8.10468C16.9234 8.10468 17.2095 7.98615 17.4205 7.77517C17.6315 7.56419 17.75 7.27805 17.75 6.97968C17.75 6.68131 17.6315 6.39516 17.4205 6.18418C17.2095 5.9732 16.9234 5.85468 16.625 5.85468ZM5.375 8.10468C5.07663 8.10468 4.79048 8.22321 4.5795 8.43418C4.36853 8.64516 4.25 8.93131 4.25 9.22968C4.25 9.52805 4.36853 9.81419 4.5795 10.0252C4.79048 10.2362 5.07663 10.3547 5.375 10.3547C5.67337 10.3547 5.95952 10.2362 6.1705 10.0252C6.38147 9.81419 6.5 9.52805 6.5 9.22968C6.5 8.93131 6.38147 8.64516 6.1705 8.43418C5.95952 8.22321 5.67337 8.10468 5.375 8.10468Z" fill="white"/>
</svg>
