<svg width="20" height="20" viewBox="0 0 20 20" fill="none" xmlns="http://www.w3.org/2000/svg">
<g clip-path="url(#clip0_393_106)">
<path d="M8.06947 15.6667C7.56576 15.6667 5.99645 15.6667 4.83375 15.6667C4.21426 15.6667 3.8121 15.0148 4.08915 14.4607L4.8009 13.0372C5.03232 12.5743 5.1528 12.0645 5.1528 11.547C5.1528 10.9056 5.1528 9.95283 5.1528 9C5.1528 7.33333 5.98614 4 10.1528 4C14.3195 4 15.1528 7.33333 15.1528 9C15.1528 9.95283 15.1528 10.9056 15.1528 11.547C15.1528 12.0645 15.2733 12.5743 15.5047 13.0372L16.2165 14.4607C16.4935 15.0148 16.0906 15.6667 15.4711 15.6667H12.2361M8.06947 15.6667C8.06947 17.3333 8.9028 18.1667 10.1528 18.1667C11.4028 18.1667 12.2361 17.3333 12.2361 15.6667M8.06947 15.6667C9.37122 15.6667 12.2361 15.6667 12.2361 15.6667" stroke="#A6A6A6" stroke-linejoin="round"/>
<path d="M10 4.16667V2.5" stroke="#A6A6A6" stroke-linecap="round" stroke-linejoin="round"/>
</g>
<defs>
<clipPath id="clip0_393_106">
<rect width="20" height="20" fill="white"/>
</clipPath>
</defs>
</svg>
