<svg width="13" height="13" viewBox="0 0 13 13" fill="none" xmlns="http://www.w3.org/2000/svg">
<path d="M11.8866 4.1157L8.48348 0.713524C8.37837 0.60803 8.2515 0.526749 8.11174 0.475355C7.97196 0.423961 7.82266 0.403695 7.67423 0.415969C7.52583 0.428243 7.38188 0.472765 7.25245 0.546422C7.12303 0.620081 7.01123 0.721102 6.92489 0.842431L3.88739 5.1057C3.87921 5.11681 3.86866 5.12595 3.85648 5.13244C3.84431 5.13894 3.83086 5.14262 3.81708 5.1432L2.51161 5.15258C2.30974 5.15422 2.11284 5.21548 1.94571 5.32869C1.77858 5.44191 1.64864 5.60202 1.57223 5.78888C1.49583 5.97575 1.4764 6.18102 1.51634 6.3789C1.5563 6.57678 1.65387 6.75844 1.79677 6.90101L3.4163 8.52055L4.07958 9.18383L5.69911 10.8034C5.8417 10.9463 6.02334 11.0438 6.22123 11.0838C6.41911 11.1237 6.6244 11.1043 6.81127 11.0279C6.99811 10.9515 7.15821 10.8216 7.27144 10.6544C7.38464 10.4873 7.44593 10.2904 7.44755 10.0885L7.45692 8.78305C7.45753 8.76929 7.46121 8.75581 7.4677 8.74365C7.4742 8.73148 7.48331 8.72091 7.49442 8.71273L11.7577 5.67523C11.8789 5.58859 11.9798 5.47662 12.0534 5.34713C12.1271 5.21764 12.1717 5.07369 12.1843 4.92523C12.1973 4.77671 12.1774 4.62716 12.1259 4.48721C12.0745 4.34729 11.9927 4.22042 11.8866 4.1157Z" fill="white"/>
<path d="M11.8866 3.70322L8.48348 0.301037C8.37837 0.195543 8.2515 0.114262 8.11174 0.0628678C7.97196 0.011474 7.82266 -0.00879233 7.67423 0.00348189C7.52583 0.0157561 7.38188 0.060278 7.25245 0.133935C7.12303 0.207594 7.01123 0.308615 6.92489 0.429944L3.88739 4.69322C3.87921 4.70433 3.86866 4.71347 3.85648 4.71996C3.84431 4.72645 3.83086 4.73013 3.81708 4.73072L2.51161 4.74009C2.30974 4.74173 2.11284 4.803 1.94571 4.9162C1.77858 5.02943 1.64864 5.18953 1.57223 5.3764C1.49583 5.56326 1.4764 5.76853 1.51634 5.96641C1.5563 6.16429 1.65387 6.34596 1.79677 6.48853L3.4163 8.10806L4.07958 8.77134L5.69911 10.3909C5.8417 10.5338 6.02334 10.6314 6.22123 10.6713C6.41911 10.7113 6.6244 10.6918 6.81127 10.6154C6.99811 10.539 7.15821 10.4091 7.27144 10.2419C7.38464 10.0748 7.44593 9.87792 7.44755 9.67603L7.45692 8.37056C7.45753 8.3568 7.46121 8.34332 7.4677 8.33116C7.4742 8.319 7.48331 8.30843 7.49442 8.30025L11.7577 5.26275C11.8789 5.1761 11.9798 5.06414 12.0534 4.93465C12.1271 4.80515 12.1717 4.6612 12.1843 4.51275C12.1973 4.36422 12.1774 4.21467 12.1259 4.07472C12.0745 3.9348 11.9927 3.80793 11.8866 3.70322Z" fill="white"/>
<path d="M4.07956 9.18383L0.800648 12.4627C0.712692 12.5507 0.593395 12.6001 0.469005 12.6001C0.344618 12.6001 0.225321 12.5507 0.137365 12.4627C0.0494063 12.3748 0 12.2555 0 12.1311C0 12.0067 0.0494063 11.8874 0.137365 11.7995L3.41627 8.52055L4.07956 9.18383Z" fill="white"/>
</svg>
