<svg width="20" height="20" viewBox="0 0 20 20" fill="none" xmlns="http://www.w3.org/2000/svg">
<path d="M19.8982 0.819067C19.8092 0.74098 19.6825 0.722863 19.5751 0.772669L0.172992 9.78744C0.068538 9.83599 0.00127346 9.9402 1.78559e-05 10.0554C-0.00123775 10.1705 0.0638146 10.2762 0.167253 10.3269L5.65801 13.0216C5.7587 13.071 5.87876 13.0598 5.96869 12.9926L11.3072 9.00256L7.11625 13.3135C7.05646 13.375 7.02597 13.4592 7.03254 13.5447L7.44982 18.9791C7.45909 19.0995 7.53981 19.2024 7.65455 19.2402C7.68522 19.2502 7.71673 19.2551 7.74788 19.2551C7.83332 19.2551 7.91643 19.2185 7.97425 19.1515L10.8886 15.7744L14.4913 17.4958C14.5695 17.5331 14.66 17.5347 14.7394 17.5001C14.8189 17.4655 14.8794 17.3982 14.9054 17.3156L19.9863 1.13339C20.0218 1.02038 19.9872 0.897153 19.8982 0.819067Z" fill="#0F172A"/>
</svg>
