<svg width="22" height="19" viewBox="0 0 22 19" fill="none" xmlns="http://www.w3.org/2000/svg">
<path d="M16.0004 8.305C16.0004 7.959 16.0004 7.786 16.0524 7.632C16.2034 7.184 16.6024 7.011 17.0024 6.829C17.4504 6.624 17.6744 6.522 17.8974 6.504C18.1494 6.484 18.4024 6.538 18.6184 6.659C18.9044 6.819 19.1044 7.125 19.3084 7.373C20.2514 8.519 20.7234 9.092 20.8954 9.723C21.0354 10.233 21.0354 10.767 20.8954 11.276C20.6444 12.198 19.8494 12.97 19.2604 13.686C18.9594 14.051 18.8084 14.234 18.6184 14.341C18.3987 14.4628 18.1478 14.5168 17.8974 14.496C17.6744 14.478 17.4504 14.376 17.0014 14.171C16.6014 13.989 16.2034 13.816 16.0524 13.368C16.0004 13.214 16.0004 13.041 16.0004 12.695V8.305ZM6.0004 8.305C6.0004 7.869 5.9884 7.478 5.6364 7.172C5.5084 7.061 5.3384 6.984 4.9994 6.829C4.5504 6.625 4.3264 6.522 4.1034 6.504C3.4364 6.45 3.0774 6.906 2.6934 7.374C1.7494 8.519 1.2774 9.092 1.1044 9.724C0.965201 10.2323 0.965201 10.7687 1.1044 11.277C1.3564 12.198 2.1524 12.971 2.7404 13.686C3.1114 14.136 3.4664 14.547 4.1034 14.496C4.3264 14.478 4.5504 14.376 4.9994 14.171C5.3394 14.017 5.5084 13.939 5.6364 13.828C5.9884 13.522 6.0004 13.131 6.0004 12.696V8.305Z" stroke="black" stroke-linecap="round" stroke-linejoin="round"/>
<path d="M4 6.5C4 3.186 7.134 0.5 11 0.5C14.866 0.5 18 3.186 18 6.5M18 14.5V15.3C18 17.067 16.21 18.5 14 18.5H12" stroke="black" stroke-linecap="round" stroke-linejoin="round"/>
</svg>
