<svg width="22" height="23" viewBox="0 0 22 23" fill="none" xmlns="http://www.w3.org/2000/svg">
<path d="M5.55563 10.4725C5.55563 9.86704 6.04645 9.37621 6.65191 9.37621C7.25737 9.37621 7.74819 9.86704 7.74819 10.4725C7.74819 11.078 7.25737 11.5688 6.65191 11.5688C6.04645 11.5688 5.55563 11.078 5.55563 10.4725Z" fill="white"/>
<path d="M5.55563 15.9539C5.55563 15.3484 6.04645 14.8576 6.65191 14.8576C7.25737 14.8576 7.74819 15.3484 7.74819 15.9539C7.74819 16.5594 7.25737 17.0502 6.65191 17.0502C6.04645 17.0502 5.55563 16.5594 5.55563 15.9539Z" fill="white"/>
<path d="M9.94076 10.4725C9.94076 9.86704 10.4316 9.37621 11.037 9.37621C11.6425 9.37621 12.1333 9.86704 12.1333 10.4725C12.1333 11.078 11.6425 11.5688 11.037 11.5688C10.4316 11.5688 9.94076 11.078 9.94076 10.4725Z" fill="white"/>
<path d="M9.94076 15.9539C9.94076 15.3484 10.4316 14.8576 11.037 14.8576C11.6425 14.8576 12.1333 15.3484 12.1333 15.9539C12.1333 16.5594 11.6425 17.0502 11.037 17.0502C10.4316 17.0502 9.94076 16.5594 9.94076 15.9539Z" fill="white"/>
<path d="M14.3259 10.4725C14.3259 9.86704 14.8167 9.37621 15.4222 9.37621C16.0276 9.37621 16.5185 9.86704 16.5185 10.4725C16.5185 11.078 16.0276 11.5688 15.4222 11.5688C14.8167 11.5688 14.3259 11.078 14.3259 10.4725Z" fill="white"/>
<path d="M14.3259 15.9539C14.3259 15.3484 14.8167 14.8576 15.4222 14.8576C16.0276 14.8576 16.5185 15.3484 16.5185 15.9539C16.5185 16.5594 16.0276 17.0502 15.4222 17.0502C14.8167 17.0502 14.3259 16.5594 14.3259 15.9539Z" fill="white"/>
<path fill-rule="evenodd" clip-rule="evenodd" d="M6.65191 0.605957C7.25737 0.605957 7.74819 1.09678 7.74819 1.70224V2.79852H14.3259V1.70224C14.3259 1.09678 14.8167 0.605957 15.4222 0.605957C16.0276 0.605957 16.5185 1.09678 16.5185 1.70224V2.79852C19.5458 2.79852 21.9999 5.25263 21.9999 8.27993V17.0502C21.9999 20.0775 19.5458 22.5316 16.5185 22.5316H5.55563C2.52833 22.5316 0.0742188 20.0775 0.0742188 17.0502V8.27993C0.0742188 5.25263 2.52833 2.79852 5.55563 2.79852V1.70224C5.55563 1.09678 6.04645 0.605957 6.65191 0.605957ZM5.55563 4.99109C3.73925 4.99109 2.26678 6.46355 2.26678 8.27993V17.0502C2.26678 18.8666 3.73925 20.339 5.55563 20.339H16.5185C18.3348 20.339 19.8073 18.8666 19.8073 17.0502V8.27993C19.8073 6.46355 18.3348 4.99109 16.5185 4.99109C16.5185 5.59655 16.0276 6.08737 15.4222 6.08737C14.8167 6.08737 14.3259 5.59655 14.3259 4.99109H7.74819C7.74819 5.59655 7.25737 6.08737 6.65191 6.08737C6.04645 6.08737 5.55563 5.59655 5.55563 4.99109Z" fill="white"/>
</svg>
