<svg width="40" height="40" viewBox="0 0 40 40" fill="none" xmlns="http://www.w3.org/2000/svg">
<path d="M28.7763 17.0258C30.5532 17.0435 32.2523 17.7571 33.5088 19.0136C34.7653 20.2701 35.479 21.9692 35.4967 23.7461C35.5193 25.5003 34.7899 27.1766 33.6037 28.4218C32.3239 29.765 30.5962 30.443 28.7763 30.4664C26.1121 30.5006 26.1089 34.6351 28.7763 34.6008C34.7393 34.5241 39.5543 29.7091 39.6311 23.746C39.7078 17.7826 34.6237 12.9665 28.7763 12.8914C26.1089 12.8571 26.1121 16.9916 28.7763 17.0258ZM11.1428 30.4417C9.36588 30.4241 7.66674 29.7104 6.41022 28.4539C5.1537 27.1974 4.44 25.4983 4.42238 23.7214C4.39984 21.9671 5.12902 20.2908 6.31539 19.0454C7.59504 17.7022 9.32273 17.0244 11.1427 17.001C13.8068 16.9667 13.8101 12.8322 11.1427 12.8665C5.17961 12.9432 0.364605 17.7581 0.287965 23.7214C0.211324 29.6848 5.29523 34.501 11.1428 34.5762C13.8101 34.6104 13.8068 30.476 11.1428 30.4417Z" fill="white"/>
<path d="M13.2694 15.008C13.2869 13.2311 14.0006 11.532 15.2571 10.2755C16.5136 9.01895 18.2127 8.30529 19.9896 8.28774C21.7438 8.2652 23.4201 8.99445 24.6653 10.1808C26.0086 11.4604 26.6865 13.188 26.7099 15.008C26.7442 17.672 30.8787 17.6753 30.8444 15.008C30.7677 9.04496 25.9526 4.22996 19.9896 4.15332C14.0262 4.07668 9.21014 9.16043 9.13498 15.008C9.1006 17.6753 13.2351 17.672 13.2694 15.008Z" fill="white"/>
<path d="M21.2907 18.4796C21.9369 19.1258 21.9369 20.1732 21.2907 20.8193L16.4903 25.6199C15.8442 26.2659 14.7967 26.2659 14.1506 25.6199C13.5045 24.9736 13.5045 23.9261 14.1506 23.2801L18.9511 18.4796C19.5971 17.8335 20.6447 17.8335 21.2907 18.4796Z" fill="white"/>
<path d="M18.9516 18.4797C19.5975 17.8336 20.6451 17.8336 21.2911 18.4797L26.0917 23.2803C26.7377 23.9261 26.7377 24.9738 26.0917 25.62C25.4456 26.266 24.3979 26.266 23.752 25.62L18.9516 20.8195C18.3052 20.1733 18.3052 19.1258 18.9516 18.4797Z" fill="white"/>
<path d="M20.0799 24.7694C21.0163 24.7694 21.7753 25.5285 21.7753 26.4647V33.4212C21.7753 34.3574 21.0162 35.1164 20.0799 35.1164C19.1438 35.1164 18.3848 34.3573 18.3848 33.4212V26.4647C18.3848 25.5284 19.1439 24.7694 20.0799 24.7694Z" fill="white"/>
</svg>
