<svg width="20" height="18" viewBox="0 0 20 18" fill="none" xmlns="http://www.w3.org/2000/svg">
<path d="M16.4173 4.41667H15.5007V3.5C15.5007 2.77065 15.2109 2.07118 14.6952 1.55546C14.1795 1.03973 13.48 0.75 12.7507 0.75H3.58398C2.85464 0.75 2.15517 1.03973 1.63944 1.55546C1.12372 2.07118 0.833984 2.77065 0.833984 3.5V14.5C0.833984 15.2293 1.12372 15.9288 1.63944 16.4445C2.15517 16.9603 2.85464 17.25 3.58398 17.25H16.4173C17.1467 17.25 17.8461 16.9603 18.3619 16.4445C18.8776 15.9288 19.1673 15.2293 19.1673 14.5V7.16667C19.1673 6.43732 18.8776 5.73785 18.3619 5.22212C17.8461 4.7064 17.1467 4.41667 16.4173 4.41667ZM3.58398 2.58333H12.7507C12.9938 2.58333 13.2269 2.67991 13.3988 2.85182C13.5707 3.02373 13.6673 3.25688 13.6673 3.5V4.41667H3.58398C3.34087 4.41667 3.10771 4.32009 2.9358 4.14818C2.76389 3.97627 2.66732 3.74312 2.66732 3.5C2.66732 3.25688 2.76389 3.02373 2.9358 2.85182C3.10771 2.67991 3.34087 2.58333 3.58398 2.58333ZM17.334 11.75H16.4173C16.1742 11.75 15.941 11.6534 15.7691 11.4815C15.5972 11.3096 15.5007 11.0764 15.5007 10.8333C15.5007 10.5902 15.5972 10.3571 15.7691 10.1852C15.941 10.0132 16.1742 9.91667 16.4173 9.91667H17.334V11.75ZM17.334 8.08333H16.4173C15.688 8.08333 14.9885 8.37306 14.4728 8.88879C13.957 9.40451 13.6673 10.104 13.6673 10.8333C13.6673 11.5627 13.957 12.2622 14.4728 12.7779C14.9885 13.2936 15.688 13.5833 16.4173 13.5833H17.334V14.5C17.334 14.7431 17.2374 14.9763 17.0655 15.1482C16.8936 15.3201 16.6604 15.4167 16.4173 15.4167H3.58398C3.34087 15.4167 3.10771 15.3201 2.9358 15.1482C2.76389 14.9763 2.66732 14.7431 2.66732 14.5V6.09417C2.96181 6.19777 3.2718 6.25046 3.58398 6.25H16.4173C16.6604 6.25 16.8936 6.34658 17.0655 6.51849C17.2374 6.69039 17.334 6.92355 17.334 7.16667V8.08333Z" fill="#A6A6A6"/>
</svg>
