<svg width="372" height="391" viewBox="0 0 372 391" fill="none" xmlns="http://www.w3.org/2000/svg">
<g clip-path="url(#clip0_1065_449)">
<path d="M372 0H-21V391H372V0Z" fill="#0F172A"/>
<path d="M356.772 111.924L488.427 127.515M434.39 430.1L338.105 360.209L234.451 322.575L130.797 262.947L-1.34912 292.761M-1.34912 292.761L123.92 373.405L41.144 429.856L-1.34912 292.761ZM-1.34912 292.761L-117.775 240.954L29.1084 186.702L-36.2279 111.924L41.144 38.8556L-54.8954 -30.7913" stroke="#1E293B" stroke-width="0.50125"/>
<path d="M-36.2285 111.924L95.4265 127.564L170.588 186.702L275.224 240.954L130.551 262.703L28.8621 186.458M160.763 442.319L123.919 373.405" stroke="#1E293B" stroke-width="0.50125"/>
<path d="M234.451 322.575L262.943 411.528L338.104 360.209L391.651 292.761L275.224 240.954L234.451 322.575ZM234.451 322.575L123.919 373.405L130.797 262.947L170.588 186.702L243.784 131.474L356.772 111.924L262.698 20.2831L160.763 51.3187L123.919 -17.595L41.1439 38.8556L95.427 127.564L29.1082 186.702L-1.34926 292.761L-54.8955 360.209L41.3895 430.1" stroke="#1E293B" stroke-width="0.50125"/>
<path d="M234.451 -68.425L263.189 20.7718L338.105 -30.7913M275.225 240.954L243.785 131.474M243.785 131.474L95.4272 127.564L160.763 51.3187M243.785 131.474L422.108 186.702M170.588 186.702H29.1084" stroke="#1E293B" stroke-width="0.50125"/>
<path d="M-130.057 20.5275L41.1436 38.8556L160.763 51.3187L243.784 131.474L262.697 20.2831M262.697 20.2831L434.389 39.1L356.772 111.924L422.108 186.702L275.224 240.954L338.104 360.209M262.697 20.2831L123.919 -17.595M262.943 411.527L123.919 373.405M-1.34956 -98.2388L41.3892 39.1M29.1079 186.702L-149.216 131.474" stroke="#1E293B" stroke-width="0.50125"/>
<path d="M356.771 114.367C358.127 114.367 359.227 113.273 359.227 111.924C359.227 110.574 358.127 109.48 356.771 109.48C355.414 109.48 354.314 110.574 354.314 111.924C354.314 113.273 355.414 114.367 356.771 114.367Z" fill="#1E293B"/>
<path d="M243.783 133.918C245.14 133.918 246.24 132.823 246.24 131.474C246.24 130.124 245.14 129.03 243.783 129.03C242.427 129.03 241.327 130.124 241.327 131.474C241.327 132.823 242.427 133.918 243.783 133.918Z" fill="#1E293B"/>
<path d="M275.224 243.398C276.58 243.398 277.68 242.303 277.68 240.954C277.68 239.604 276.58 238.51 275.224 238.51C273.867 238.51 272.768 239.604 272.768 240.954C272.768 242.303 273.867 243.398 275.224 243.398Z" fill="#1E293B"/>
<path d="M338.104 362.653C339.46 362.653 340.56 361.558 340.56 360.209C340.56 358.859 339.46 357.765 338.104 357.765C336.747 357.765 335.647 358.859 335.647 360.209C335.647 361.558 336.747 362.653 338.104 362.653Z" fill="#1E293B"/>
<path d="M234.449 325.019C235.806 325.019 236.906 323.925 236.906 322.575C236.906 321.225 235.806 320.131 234.449 320.131C233.093 320.131 231.993 321.225 231.993 322.575C231.993 323.925 233.093 325.019 234.449 325.019Z" fill="#1E293B"/>
<path d="M130.796 265.391C132.153 265.391 133.252 264.297 133.252 262.948C133.252 261.598 132.153 260.504 130.796 260.504C129.44 260.504 128.34 261.598 128.34 262.948C128.34 264.297 129.44 265.391 130.796 265.391Z" fill="#1E293B"/>
<path d="M123.918 375.849C125.275 375.849 126.374 374.755 126.374 373.405C126.374 372.055 125.275 370.961 123.918 370.961C122.562 370.961 121.462 372.055 121.462 373.405C121.462 374.755 122.562 375.849 123.918 375.849Z" fill="#1E293B"/>
<path d="M-1.35039 295.205C0.00615859 295.205 1.10586 294.111 1.10586 292.761C1.10586 291.412 0.00615859 290.318 -1.35039 290.318C-2.70694 290.318 -3.80664 291.412 -3.80664 292.761C-3.80664 294.111 -2.70694 295.205 -1.35039 295.205Z" fill="#1E293B"/>
<path d="M29.1066 189.146C30.4632 189.146 31.5629 188.052 31.5629 186.703C31.5629 185.353 30.4632 184.259 29.1066 184.259C27.7501 184.259 26.6504 185.353 26.6504 186.703C26.6504 188.052 27.7501 189.146 29.1066 189.146Z" fill="#1E293B"/>
<path d="M41.3879 41.5438C42.7444 41.5438 43.8441 40.4496 43.8441 39.1C43.8441 37.7504 42.7444 36.6562 41.3879 36.6562C40.0313 36.6562 38.9316 37.7504 38.9316 39.1C38.9316 40.4496 40.0313 41.5438 41.3879 41.5438Z" fill="#1E293B"/>
<path d="M160.762 53.7625C162.118 53.7625 163.218 52.6684 163.218 51.3188C163.218 49.9691 162.118 48.875 160.762 48.875C159.405 48.875 158.306 49.9691 158.306 51.3188C158.306 52.6684 159.405 53.7625 160.762 53.7625Z" fill="#1E293B"/>
<path d="M262.943 22.9712C264.299 22.9712 265.399 21.8771 265.399 20.5275C265.399 19.1778 264.299 18.0837 262.943 18.0837C261.586 18.0837 260.486 19.1778 260.486 20.5275C260.486 21.8771 261.586 22.9712 262.943 22.9712Z" fill="#1E293B"/>
<path d="M95.426 130.007C96.7825 130.007 97.8822 128.913 97.8822 127.564C97.8822 126.214 96.7825 125.12 95.426 125.12C94.0694 125.12 92.9697 126.214 92.9697 127.564C92.9697 128.913 94.0694 130.007 95.426 130.007Z" fill="#1E293B"/>
<path d="M170.587 189.146C171.944 189.146 173.043 188.052 173.043 186.703C173.043 185.353 171.944 184.259 170.587 184.259C169.231 184.259 168.131 185.353 168.131 186.703C168.131 188.052 169.231 189.146 170.587 189.146Z" fill="#1E293B"/>
</g>
<defs>
<clipPath id="clip0_1065_449">
<rect width="393" height="391" fill="white" transform="translate(-21)"/>
</clipPath>
</defs>
</svg>
